<svg xmlns="http://www.w3.org/2000/svg" viewBox="0 0 512 512" fill="none">
  <defs>
    <linearGradient id="bg" x1="0" y1="0" x2="512" y2="512" gradientUnits="userSpaceOnUse">
      <stop offset="0%" stop-color="#5B44D4"/>
      <stop offset="100%" stop-color="#4430B8"/>
    </linearGradient>
    <linearGradient id="bolt" x1="200" y1="100" x2="320" y2="420" gradientUnits="userSpaceOnUse">
      <stop offset="0%" stop-color="#FFFFFF"/>
      <stop offset="100%" stop-color="#E8E0FF"/>
    </linearGradient>
  </defs>
  <!-- Rounded square background -->
  <rect x="16" y="16" width="480" height="480" rx="96" ry="96" fill="url(#bg)"/>
  <!-- Stylized Q with brain-circuit lightning bolt -->
  <!-- Q letter outer -->
  <path d="M256 96c-88.4 0-160 71.6-160 160s71.6 160 160 160c35.2 0 67.7-11.4 94.1-30.7l37.9 37.9c6.2 6.2 16.4 6.2 22.6 0s6.2-16.4 0-22.6l-37.9-37.9C391.6 335.7 416 296 416 256c0-88.4-71.6-160-160-160z" fill="none" stroke="white" stroke-width="40" stroke-linejoin="round"/>
  <!-- Lightning bolt inside Q -->
  <path d="M280 168l-56 96h40l-16 80 64-104h-44l12-72z" fill="url(#bolt)" stroke="none"/>
  <!-- Small circuit dots -->
  <circle cx="196" cy="216" r="8" fill="white" opacity="0.6"/>
  <circle cx="320" cy="296" r="8" fill="white" opacity="0.6"/>
  <circle cx="216" cy="336" r="6" fill="white" opacity="0.4"/>
</svg>
